<?xml version="1.0" encoding="UTF-8" standalone="no"?>
<svg
   height="48"
   viewBox="0 -960 960 960"
   width="48"
   version="1.1"
   id="svg1"
   sodipodi:docname="pause.svg"
   inkscape:export-filename="pause.png"
   inkscape:export-xdpi="1024"
   inkscape:export-ydpi="1024"
   inkscape:version="1.3 (0e150ed6c4, 2023-07-21)"
   xmlns:inkscape="http://www.inkscape.org/namespaces/inkscape"
   xmlns:sodipodi="http://sodipodi.sourceforge.net/DTD/sodipodi-0.dtd"
   xmlns="http://www.w3.org/2000/svg"
   xmlns:svg="http://www.w3.org/2000/svg">
  <defs
     id="defs1" />
  <sodipodi:namedview
     id="namedview1"
     pagecolor="#505050"
     bordercolor="#eeeeee"
     borderopacity="1"
     inkscape:showpageshadow="0"
     inkscape:pageopacity="0"
     inkscape:pagecheckerboard="0"
     inkscape:deskcolor="#d1d1d1"
     inkscape:zoom="25.604167"
     inkscape:cx="24.039056"
     inkscape:cy="24.039056"
     inkscape:window-width="2560"
     inkscape:window-height="1506"
     inkscape:window-x="-11"
     inkscape:window-y="-11"
     inkscape:window-maximized="1"
     inkscape:current-layer="svg1" />
  <path
     d="m 348,-288 h 72.00001 V -671.99999 H 348 Z m 192,0 h 72 V -671.99999 H 540 Z M 480,0 Q 381.6,0 294,-37.800002 206.4,-75.600004 141,-141 75.6,-206.4 37.8,-294 0,-381.6 0,-480 0,-579.6 37.8,-667.19999 75.6,-754.8 141,-819.59999 206.4,-884.4 294,-922.2 381.6,-960 480,-960 q 99.6,0 187.20001,37.8 Q 754.8,-884.4 819.6,-819.59999 884.4,-754.8 922.2,-667.19999 960,-579.6 960,-480 q 0,98.4 -37.8,186 -37.8,87.6 -102.6,153 Q 754.8,-75.600004 667.20001,-37.800002 579.6,0 480,0 Z m 0,-71.999996 q 170.4,0 289.2,-119.400004 Q 888,-310.8 888,-480 888,-650.4 769.2,-769.2 650.4,-887.99999 480,-887.99999 q -169.2,0 -288.6,118.79999 -119.399996,118.8 -119.399996,289.2 0,169.2 119.399996,288.6 Q 310.8,-71.999996 480,-71.999996 Z M 480,-480 Z"
     id="path1"
     style="stroke-width:1.2;fill:#ffffff" />
</svg>
