<?xml version="1.0" encoding="UTF-8" standalone="no"?>
<svg
   height="48"
   viewBox="0 -960 960 960"
   width="48"
   version="1.1"
   id="svg1"
   sodipodi:docname="brain.svg"
   inkscape:version="1.3 (0e150ed6c4, 2023-07-21)"
   inkscape:export-filename="brain.png"
   inkscape:export-xdpi="1024"
   inkscape:export-ydpi="1024"
   xmlns:inkscape="http://www.inkscape.org/namespaces/inkscape"
   xmlns:sodipodi="http://sodipodi.sourceforge.net/DTD/sodipodi-0.dtd"
   xmlns="http://www.w3.org/2000/svg"
   xmlns:svg="http://www.w3.org/2000/svg">
  <defs
     id="defs1" />
  <sodipodi:namedview
     id="namedview1"
     pagecolor="#505050"
     bordercolor="#eeeeee"
     borderopacity="1"
     inkscape:showpageshadow="0"
     inkscape:pageopacity="0"
     inkscape:pagecheckerboard="0"
     inkscape:deskcolor="#d1d1d1"
     inkscape:zoom="25.604167"
     inkscape:cx="24"
     inkscape:cy="24.039056"
     inkscape:window-width="2560"
     inkscape:window-height="1506"
     inkscape:window-x="-11"
     inkscape:window-y="-11"
     inkscape:window-maximized="1"
     inkscape:current-layer="svg1" />
  <path
     d="M 606.66667,0 Q 580.00001,0 559.33333,-6.0000051 538.66666,-11.999998 520,-22.666669 V -937.33333 Q 538.66666,-948 558.66666,-953.99999 578.66667,-960 604,-960 q 66.66667,0 114.66667,47.33333 47.99999,47.33334 52,115.33335 Q 848,-790.66666 904,-732.66667 q 56,58.00001 56,139.33334 0,30.66667 -8,58 Q 943.99999,-508 929.33333,-484 q 14.66666,26.66667 22.66667,56 8,29.33333 8,57.33334 0,85.33332 -52.66667,141.99999 -52.66666,56.66668 -131.33333,63.33334 -6.66667,64 -54.66666,114.666658 Q 673.33334,0 606.66667,0 Z M 353.33333,0 Q 285.33334,0 238,-50.666672 190.66667,-101.33333 184,-165.33333 q -78.66666,-6.66666 -131.333334,-66 Q 0,-290.66666 0,-376 0,-405.33333 7.3333341,-432.66667 14.666667,-460 29.333334,-485.33334 14.666667,-509.33333 7.3333341,-536 0,-562.66666 0,-593.33333 0,-673.33334 55.333333,-730.66666 110.66667,-787.99999 186.66667,-797.33332 189.33334,-865.33333 238,-912.66667 286.66666,-960 354.66667,-960 q 25.33334,0 46,6.00001 Q 421.33334,-948 440,-937.33333 V -22.666669 Q 421.33334,-11.999998 400.66667,-6.0000051 380.00001,0 353.33333,0 Z"
     id="path1"
     style="fill:#ffffff;stroke-width:1.33333" />
</svg>
