<?xml version="1.0" encoding="UTF-8" standalone="no"?>
<svg
   height="48"
   viewBox="0 -960 1047.749 960"
   width="52.387451"
   version="1.1"
   id="svg1"
   sodipodi:docname="heart.svg"
   inkscape:export-filename="health.png"
   inkscape:export-xdpi="1024"
   inkscape:export-ydpi="1024"
   inkscape:version="1.3 (0e150ed6c4, 2023-07-21)"
   xmlns:inkscape="http://www.inkscape.org/namespaces/inkscape"
   xmlns:sodipodi="http://sodipodi.sourceforge.net/DTD/sodipodi-0.dtd"
   xmlns="http://www.w3.org/2000/svg"
   xmlns:svg="http://www.w3.org/2000/svg">
  <defs
     id="defs1" />
  <sodipodi:namedview
     id="namedview1"
     pagecolor="#505050"
     bordercolor="#eeeeee"
     borderopacity="1"
     inkscape:showpageshadow="0"
     inkscape:pageopacity="0"
     inkscape:pagecheckerboard="0"
     inkscape:deskcolor="#d1d1d1"
     inkscape:zoom="12.802084"
     inkscape:cx="43.703824"
     inkscape:cy="21.207485"
     inkscape:window-width="2560"
     inkscape:window-height="1506"
     inkscape:window-x="-11"
     inkscape:window-y="-11"
     inkscape:window-maximized="1"
     inkscape:current-layer="svg1" />
  <path
     d="M 523.87449,0 470.17735,-48.45839 Q 331.35061,-175.49795 240.98226,-267.83083 150.61392,-360.16371 96.91678,-432.8513 43.219645,-505.53888 21.609823,-564.47476 0,-623.41064 0,-683.65621 0,-801.52797 79.236016,-880.76398 158.47203,-960 275.03411,-960 q 74.65211,0 138.17189,35.36153 63.51978,35.36153 110.66849,102.15552 Q 578.88131,-893.206 640.43656,-926.603 701.99181,-960 772.71487,-960 q 116.56207,0 195.79809,79.23602 79.23604,79.23601 79.23604,197.10777 0,60.24557 -21.6098,119.18145 -21.6099,58.93588 -75.307,131.62346 -53.69714,72.68759 -144.06549,165.02047 -90.36835,92.33288 -229.19509,219.37244 z"
     id="path1"
     style="fill:#ffffff;stroke-width:1.30969" />
</svg>
